<svg version="1.2" xmlns="http://www.w3.org/2000/svg" viewBox="0 0 1263 1263" width="600" height="600">
    <style></style>
    <path fillRule="evenodd"
        d="m1184.3 977.4c0 114.3-93.1 207.4-207.3 207.4h-600.1c29.2-35.2 67.6-84.7 102.2-138.2h497.9c9.1-0.1 18-1.9 26.4-5.4 8.4-3.5 16-8.5 22.4-15 6.4-6.4 11.5-14 15-22.3 3.5-8.4 5.3-17.4 5.3-26.5 0-9-1.8-18-5.3-26.4-3.5-8.4-8.6-16-15-22.4-6.4-6.4-14-11.5-22.4-15-8.4-3.4-17.4-5.3-26.4-5.3h-207.4c-114.2 0-207.3-93.1-207.3-207.3 0-114.3 93.1-207.4 207.3-207.4h97.9c-49.9-70.4-97.9-152.3-97.9-207.3 0-114.5 92.9-207.4 207.4-207.4 114.5 0 207.3 92.9 207.3 207.4 0 114.4-207.3 345.5-207.3 345.5h-207.4c-9 0.1-18 1.9-26.4 5.4-8.4 3.4-16 8.5-22.4 15-6.4 6.4-11.5 14-15 22.4-3.5 8.3-5.3 17.3-5.3 26.4 0 9.1 1.8 18 5.3 26.4 3.5 8.4 8.6 16 15 22.4 6.4 6.4 14 11.5 22.4 15 8.4 3.5 17.4 5.3 26.4 5.3h207.4c114.2 0 207.3 93.1 207.3 207.3zm-276.4-691.1c0 9 1.7 18 5.2 26.4 3.5 8.4 8.6 16 15 22.5 6.4 6.4 14 11.5 22.4 14.9 8.4 3.5 17.4 5.3 26.5 5.3 38.2 0 69.1-30.9 69.1-69.2 0-38.2-30.9-69.1-69.1-69.1-38.3 0-69.1 30.9-69.1 69.2zm-414.7 552.9c0 114.5-207.4 345.6-207.4 345.6 0 0-207.4-231.1-207.4-345.6 0-114.5 92.9-207.4 207.4-207.4 114.5 0 207.4 92.9 207.4 207.4zm-138.3 0c0-38.2-30.9-69.1-69.1-69.1-38.3 0-69.1 30.9-69.1 69.1 0 9.1 1.7 18.1 5.2 26.5 3.5 8.4 8.6 16 15 22.4 6.4 6.4 14.1 11.5 22.4 15 8.4 3.5 17.4 5.2 26.5 5.2 38.2 0 69.1-30.9 69.1-69.1z" />
</svg>