<svg version="1.2" xmlns="http://www.w3.org/2000/svg" viewBox="0 0 1651 783" width="600" height="285">
    <style>
        .a {
            stroke: #000;
            stroke-linecap: round;
            stroke-linejoin: round
        }

        .b {
            fill: #fff
        }
    </style>
    <path fillRule="evenodd"
        d="m512.8 568.1c-18.7 32.2-18.7 72-0.1 104.2 18.6 32.2 53 52.1 90.2 52.1 37.3 0 71.6-19.9 90.2-52.1 18.6-32.2 18.6-72 0-104.2 0 0-175.3 0.8-180.3 0zm732.1 3.9c-18.2 31.4-18.2 70.1 0 101.6 18.1 31.4 51.7 50.7 87.9 50.7 36.3 0 69.9-19.3 88-50.7 18.1-31.5 18.1-70.2 0-101.6-18.2-31.4-171.1 0.7-175.9 0z" />
    <path fillRule="evenodd" d="m1161.7 621.8h383.4v-254.7l-96.1-173.7h-287.3c0 0 0 428.4 0 428.4z" />
    <path class="a" d="m1161.7 621.8h383.4v-254.7l-96.1-173.7h-287.3c0 0 0 428.4 0 428.4z" />
    <path fillRule="evenodd"
        d="m1120.5 621.8v-562.5l-417.9 2.7c0 0 42.1 130.6-71.9 153.7-76.1-0.7-159.6 0-159.6 0l-190.4 406.1c0 0 839.9 0 839.8 0z" />
    <path class="a"
        d="m1120.5 621.8v-562.5l-417.9 2.7c0 0 42.1 130.6-71.9 153.7-76.1-0.7-159.6 0-159.6 0l-190.4 406.1c0 0 839.9 0 839.8 0z" />
    <path fillRule="evenodd"
        d="m225.4 621.8c-0.3 2.3 219.2-460.2 219.2-460.2 0 0 173.5 0.7 172.2 0 43.8-11.7 75.9-61 10.7-99.1-2.3-1-221.5 0-221.5 0l-285.4 309.9c0 0-71.9 183.9 104.8 249.4z" />
    <path class="a"
        d="m225.4 621.8c-0.3 2.3 219.2-460.2 219.2-460.2 0 0 173.5 0.7 172.2 0 43.8-11.7 75.9-61 10.7-99.1-2.3-1-221.5 0-221.5 0l-285.4 309.9c0 0-71.9 183.9 104.8 249.4z" />
    <path fillRule="evenodd" class="b" d="m1336.9 238.1v123.8h166.6l-70.9-123.8c0 0-95.7 0-95.7 0z" />

</svg>